<svg width="101" height="85" viewBox="0 0 101 85" fill="none" xmlns="http://www.w3.org/2000/svg">
<g clip-path="url(#clip0_65_1129)">
<path d="M69.7637 39.7223L68.8691 70.1104C68.8691 70.1104 76.8735 68.1251 84.0444 69.3525C91.2153 70.5795 92.9339 72.2524 92.9339 72.2524L88.3029 27.5512L71.7487 28.0534C71.7487 28.0534 69.7637 30.7707 69.7637 39.7223Z" fill="#E0E0E0"/>
<path d="M94.1939 82.0067C93.3462 77.4916 92.4026 75.4701 92.2218 74.443C92.2218 74.443 90.9765 63.7777 90.411 54.6992C90.1389 50.3299 90.2377 47.3891 87.6348 42.3204L72.4992 46.4007C72.3152 48.726 70.8922 64.5658 71.5927 78.2223C72.1674 89.4327 72.9169 94.7152 72.9927 96.5871C73.0358 97.6485 73.0163 98.3525 72.9735 99.8289C72.9562 100.426 72.5436 100.841 72.3067 101.272C72.0148 101.802 71.459 102.231 70.9923 102.598C69.8477 103.499 69.162 104.097 67.8142 104.624C67.5547 104.725 67.2883 104.821 67.0652 104.99C66.8422 105.16 66.6642 105.419 66.6636 105.704C66.6623 106.105 66.9964 106.42 67.3361 106.617C68.5527 107.325 70.0757 107.19 71.4084 106.756C72.7408 106.322 73.9794 105.617 75.3194 105.208C76.2476 104.925 77.2299 104.781 78.0804 104.306C78.3544 104.153 78.6236 103.952 78.7453 103.657C78.8479 103.41 78.8331 103.13 78.8095 102.862C78.7076 101.693 78.5947 101.323 78.6214 100.144C78.6469 99.0263 78.8045 96.9573 78.8885 95.8383C78.9592 94.8959 80.0488 86.5177 79.8827 82.3408C79.8028 80.3304 80.0044 78.5158 80.0044 78.5158L81.3497 63.6795C81.965 66.1581 84.2454 73.3391 84.9578 76.6203C85.8284 80.6288 87.2933 85.7136 89.1072 93.0477C89.6183 95.1135 90.5494 97.6727 90.784 98.9208C91.0183 100.169 91.3272 104.048 92.0214 105.794C93.0757 108.445 96.0598 108.435 96.3306 106.135C96.5612 104.178 95.3102 98.8188 95.2586 97.5367C95.2077 96.2549 95.1819 87.2693 94.1939 82.0067Z" fill="#E0A187"/>
<path d="M72.5274 41.499L72.3689 43.1886C70.9094 52.5233 70.7751 64.8921 70.9302 68.6506C71.3875 79.7313 71.5791 101.849 71.5791 101.849C71.5791 101.849 73.1841 103.146 75.9653 103.025C78.1831 102.928 79.6759 102.289 79.6759 102.289C79.6759 102.289 80.4862 86.7329 80.6485 83.532C80.7413 81.7036 80.6126 80.218 80.5689 79.4271C80.4591 77.4428 80.4365 76.2873 80.6243 74.3093L81.398 64.8467C81.398 64.8467 84.2594 77.9532 84.5349 79.5477C85.917 87.5474 89.8154 102.034 89.8154 102.034C89.8154 102.034 91.7105 102.489 93.8141 102.082C95.9178 101.675 96.3921 100.576 96.3921 100.576C96.3921 100.576 94.9767 84.7467 94.6477 81.5131C94.2079 77.1903 93.8 75.1793 93.5012 73.4088C93.1495 71.3269 92.9806 63.4771 92.7419 58.9103C92.579 55.7941 92.4651 53.4289 92.1207 51.142C91.4007 46.3614 89.2838 43.4814 88.4805 41.72L88.3553 40.7783C85.9805 42.8661 76.975 44.1697 72.5274 41.499Z" fill="#455A64"/>
<path d="M81.398 64.8468L79.1563 55.9163C79.1563 55.9163 76.2462 55.3052 74.8147 53.5788C74.8147 53.5788 75.1371 55.7598 78.1535 56.8729L80.2716 64.6752L80.6683 73.8465L81.398 64.8468Z" fill="#37474F"/>
<path d="M92.1914 14.4119C92.9239 12.9934 93.5074 11.1156 92.1844 9.84701C92.7616 8.2834 93.1652 6.25978 91.5676 5.19585C91.6047 3.13822 90.529 1.82808 88.9661 1.27864C87.4893 0.759748 85.8776 0.922531 84.7402 2.25157L85.8367 2.76826C85.9993 4.16783 86.4834 5.52867 87.774 6.23774C87.2543 7.8596 87.5453 9.21036 89.1815 9.9569C88.2791 11.5747 88.191 13.4043 89.4102 14.8952C88.8613 16.257 89.0777 17.3952 89.9836 18.5391C89.0349 19.6755 89.5955 21.2775 90.6611 22.1471C90.0553 22.8124 89.7798 23.4711 89.8386 24.416C89.8974 25.361 90.6136 26.2445 91.6261 26.2719C91.1185 25.8679 91.0691 25.5905 91.3317 24.8175C91.5944 24.0445 92.0558 23.1251 91.3389 22.2725C92.0517 21.0508 92.7368 19.6613 91.884 18.3622C92.5068 17.0873 92.9859 15.7157 92.1914 14.4119Z" fill="#263238"/>
<path d="M85.4091 2.5863C85.7982 1.9191 86.6575 2.18579 87.3806 2.78686C88.1034 3.38762 88.7529 4.41691 88.3579 4.97863C87.6936 5.92259 85.0341 3.23649 85.4091 2.5863Z" fill="#4E74C2"/>
<path d="M59.1243 26.7735C60.4756 27.9489 65.1644 31.3359 65.1644 31.3359C65.1644 31.3359 69.0757 26.2395 69.8938 25.1454C72.2286 22.0213 74.0174 19.833 76.858 19.9136L77.991 27.9889C75.849 30.7799 70.2923 35.7449 67.971 38.1817C66.7538 39.4597 65.2808 39.2431 64.0176 38.454C61.3745 36.8029 55.5408 29.6961 55.5408 29.6961L59.1243 26.7735Z" fill="#E0A187"/>
<path d="M76.4301 19.7899C74.7596 19.8673 73.565 20.6425 72.4987 21.7461C71.4324 22.8497 65.0901 31.2197 65.0901 31.2197L62.8046 29.556C62.8046 29.556 62.6779 31.6898 61.4118 33.3838C60.1458 35.0777 59.1594 34.4464 59.1594 34.4464C59.1594 34.4464 61.6012 37.1697 62.7115 38.0598C63.8215 38.9499 65.2001 39.6297 66.3312 39.4373C67.4623 39.2449 67.8259 38.9209 70.4998 36.2103C73.1737 33.4999 78.1944 28.436 78.1944 28.436L76.4301 19.7899Z" fill="#F0F0F0"/>
<path d="M65.0901 31.2197C66.2897 32.124 67.0947 33.2282 67.4976 34.2594C67.3501 33.1227 66.6043 31.6504 65.4553 30.7389L65.0901 31.2197Z" fill="#E0E0E0"/>
<path d="M60.6012 27.9486C58.8754 26.5686 57.8374 25.4294 57.827 23.7411C57.8166 22.0528 58.0462 21.186 57.9091 20.8066C57.772 20.4272 56.4691 18.8148 56.1021 18.0273C55.735 17.2398 55.3689 17.3113 54.6866 17.0292C53.8666 16.6901 50.5778 15.9271 50.5552 16.1825C50.5552 16.1825 50.3029 17.1167 51.2321 17.6768C51.8291 18.0367 53.6052 18.5301 53.6052 18.5301C53.6052 18.5301 53.0378 19.2228 52.7635 19.5163C52.4893 19.8097 52.5427 20.0471 52.9378 20.9986C52.9378 20.9986 52.4937 21.1945 52.4308 21.5424C52.3675 21.8903 52.5015 22.2606 52.611 22.5635C52.611 22.5635 52.3276 22.698 52.1964 22.999C52.0653 23.3 52.3307 24.0994 52.6607 24.7742C52.7491 25.6728 52.8283 26.4914 53.1174 27.3239C53.4128 28.1744 53.9613 28.5094 54.5791 28.8853C54.9927 29.1369 56.1363 30.379 56.5883 30.8507C56.5883 30.8507 62.179 29.2106 60.6012 27.9486Z" fill="#E0A187"/>
<path d="M56.9629 21.1407C56.3571 20.6747 55.9372 20.1677 55.7491 19.5065C55.5607 18.8453 55.3971 18.1003 55.1779 18.094C54.8096 18.084 54.1163 18.7996 54.3264 19.9032C54.5271 20.9558 55.0363 22.1844 55.0741 22.4911C55.1118 22.7975 54.8567 23.5207 54.6388 24.0755C54.4208 24.6303 54.2679 26.0941 55.628 27.2578C55.628 27.2578 54.785 26.954 54.2692 25.7893C53.7533 24.6246 54.4475 23.4407 54.5859 22.8765C54.7243 22.3126 54.752 22.1983 54.3985 21.2364C54.0449 20.2745 53.659 19.2376 54.4 18.2893C55.1414 17.3409 55.4864 17.7921 55.6192 18.1057C55.7516 18.4193 55.9913 20.4284 56.9629 21.1407Z" fill="#CA7666"/>
<path d="M53.6054 18.5302L54.2901 18.8633L54.0728 19.0419C54.0728 19.0419 53.6796 18.7711 53.1226 19.108L53.6054 18.5302Z" fill="#CA7666"/>
<path d="M52.938 20.9985C53.0575 21.3159 53.4887 22.2759 53.5737 22.4711C53.6583 22.6663 54.0329 22.6015 54.249 22.2268C54.4651 21.8518 54.5132 21.5942 54.4616 21.2173C54.4616 21.2173 54.6695 21.8112 54.4094 22.3017C54.1493 22.7923 53.7986 22.8578 53.5831 22.7945C53.367 22.7315 53.1984 21.6742 52.938 20.9985Z" fill="#CA7666"/>
<path d="M52.6108 22.5637C52.6973 22.803 52.871 23.11 53.1235 23.7662C53.2695 24.1459 53.3491 24.3937 53.5853 24.3622C53.8215 24.3308 54.2247 23.8301 54.1647 23.3663C54.1049 22.9022 53.9731 22.5801 53.9731 22.5801L54.1587 22.4976C54.1587 22.4976 54.4556 23.1919 54.3609 23.7501C54.2663 24.3084 53.7325 24.7483 53.4884 24.6056C53.2443 24.4627 53.1698 24.2467 52.982 23.6944C52.7945 23.1418 52.6108 22.5637 52.6108 22.5637Z" fill="#CA7666"/>
<path d="M53.4068 24.4177C53.4464 24.5787 53.364 24.9436 53.0954 24.9562C52.8271 24.9688 52.6604 24.7741 52.6604 24.7741C52.6604 24.7741 52.7793 25.1191 53.1291 25.1002C53.4518 25.0829 53.6031 24.7495 53.6525 24.468L53.4068 24.4177Z" fill="#CA7666"/>
<path d="M85.1699 19.359L89.4974 20.5149C90.3583 20.8061 89.387 25.8962 89.6273 31.7196C89.8742 37.7001 90.0877 47.3557 90.0877 47.3557C90.0877 47.3557 87.5195 48.7354 80.2584 48.9353C75.7165 49.0603 71.5353 46.5395 71.5353 46.5395L72.3685 39.6113V33.463C72.3685 33.463 69.8188 30.3587 71.2506 26.8087C72.6673 23.2957 77.6348 18.6424 77.6348 18.6424L79.8589 18.7513L85.1699 19.359Z" fill="#455A64"/>
<path d="M85.1699 19.359L89.4974 20.5149C90.3583 20.8061 89.387 25.8962 89.6273 31.7196C89.8742 37.7001 90.0877 47.3557 90.0877 47.3557C90.0877 47.3557 87.5195 48.7354 80.2584 48.9353C75.7165 49.0603 71.5353 46.5395 71.5353 46.5395L72.3685 39.6113V33.463C72.3685 33.463 69.8188 30.3587 71.2506 26.8087C72.6673 23.2957 77.6348 18.6424 77.6348 18.6424L79.8589 18.7513L85.1699 19.359Z" fill="#9ACF8C"/>
<path opacity="0.3" d="M85.7011 32.4568C85.7011 32.4568 84.3511 34.6844 81.4605 34.5484C78.8165 34.424 77.6467 32.2335 77.6467 32.2335C77.6467 32.2335 78.1443 35.2307 81.7329 35.2978C85.3161 35.3652 85.7011 32.4568 85.7011 32.4568Z" fill="#455A64"/>
<path d="M80.0279 18.9325C78.2404 20.4259 75.4561 22.4347 73.807 24.5937C70.4725 28.9596 70.0275 32.9174 69.7636 37.9936C69.711 30.4117 68.5016 26.196 77.6355 18.3559C79.2664 16.9561 79.9106 16.6453 79.9106 16.6453L80.0279 18.9325Z" fill="#FAFAFA"/>
<path d="M74.533 8.50886C71.2018 1.85455 77.802 0.45372 81.9357 1.16814C86.2842 1.91941 90.3839 4.86873 89.072 10.5618C88.5052 13.0212 87.0822 14.8301 85.9596 16.9425L74.533 8.50886Z" fill="#263238"/>
<path d="M87.4024 9.31693C85.969 8.75522 85.3157 10.2596 85.3157 10.2596C84.4212 10.867 83.9927 9.67839 83.8122 9.11636C83.1441 7.03575 83.4725 5.53448 81.7152 4.93372C80.91 4.65853 80.1676 5.31817 79.4552 5.78354C79.0211 6.06723 78.6009 6.25992 78.0958 6.1428C77.6557 6.04047 76.836 5.3802 76.4303 5.18183C75.2608 4.61036 74.8802 6.03165 74.633 7.56535C74.4603 8.63714 74.4792 10.1652 74.5459 11.2971C74.7871 15.3944 75.4407 16.827 77.0235 17.6082C77.7322 17.958 78.5953 18.0254 79.961 17.8598L80.0711 19.6227C80.0711 19.6227 78.1458 22.2417 77.8693 26.0774C77.8693 26.0774 81.0905 24.6684 82.8944 23.1536C86.03 20.5204 86.102 18.901 86.102 18.901L85.7542 13.5896C86.0215 13.9287 87.1114 13.9703 87.7317 13.1498C88.8329 11.6938 88.7766 9.85566 87.4024 9.31693Z" fill="#E0A187"/>
<path d="M79.9609 17.8601C81.2801 17.6047 83.6766 16.7741 84.0374 15.6655C84.0374 15.6655 84.132 16.5512 83.1353 17.3733C82.3033 18.0597 80.0043 18.5575 80.0043 18.5575L79.9609 17.8601Z" fill="#CA7666"/>
<path d="M80.1148 13.9435L78.7629 14.3906C78.8796 14.7779 79.2766 14.992 79.6499 14.8686C80.0233 14.7452 80.2315 14.3311 80.1148 13.9435Z" fill="#CA7666"/>
<path d="M75.466 8.0334L76.8273 7.61306C76.7248 7.22924 76.3366 7.01261 75.9607 7.12848C75.5849 7.24466 75.3634 7.64989 75.466 8.0334Z" fill="#263238"/>
<path d="M81.8672 8.26263L80.5986 7.61338C80.766 7.25318 81.1856 7.10677 81.536 7.28592C81.886 7.46508 82.0345 7.90243 81.8672 8.26263Z" fill="#263238"/>
<path d="M75.5608 10.3758C75.5476 10.708 75.7958 10.9866 76.115 10.9989C76.4343 11.0105 76.7038 10.7511 76.7171 10.4189C76.7306 10.0867 76.4824 9.80808 76.1632 9.79611C75.8439 9.78415 75.574 10.0436 75.5608 10.3758Z" fill="#263238"/>
<path d="M80.0623 10.5734C80.0488 10.9056 80.2969 11.1843 80.6165 11.1966C80.9358 11.2085 81.2053 10.9488 81.2185 10.6169C81.2321 10.2847 80.9839 10.0057 80.6646 9.99409C80.3454 9.9815 80.0755 10.2413 80.0623 10.5734Z" fill="#263238"/>
<path d="M73.3928 8.7163C73.3831 8.9685 73.5174 9.20591 73.5891 9.30604C73.6269 9.35862 73.6596 9.4282 73.6712 9.51731C73.7247 9.92159 73.7247 10.6924 73.8691 11.1307C74.015 11.5712 74.3443 12.2761 75.4745 12.3209C75.6943 12.33 75.8912 12.3149 76.0674 12.2796C76.0828 12.2771 76.0982 12.2733 76.1127 12.2705C76.2998 12.2299 76.4637 12.1659 76.6081 12.0853C76.6181 12.0797 76.6285 12.0737 76.6379 12.0677C76.6527 12.0595 76.6669 12.0513 76.681 12.0419C76.6936 12.0343 76.7062 12.0258 76.7354 12.0063C76.7527 11.995 76.7694 11.983 76.7861 11.9707C76.805 11.9569 76.8235 11.943 76.8418 11.9282C76.86 11.914 76.8776 11.8999 76.8952 11.8841C76.9305 11.8542 76.9632 11.8231 76.9956 11.79C77.1783 11.6077 77.317 11.3926 77.4309 11.176C77.725 10.614 77.7263 9.82745 78.1377 9.74401C78.1531 9.74086 78.1697 9.73866 78.1867 9.7374C78.2034 9.73583 78.221 9.73583 78.2393 9.73614C78.7878 9.75283 78.6611 10.6071 78.924 11.228C79.1882 11.8545 79.6603 12.4739 80.871 12.511C80.9251 12.5129 80.9776 12.5126 81.028 12.5123C81.0711 12.511 81.1129 12.5095 81.1535 12.5057C81.2582 12.4997 81.3567 12.4862 81.4479 12.4679C81.4796 12.4613 81.5108 12.455 81.541 12.4474C81.5712 12.4402 81.6014 12.4314 81.63 12.4232C81.6489 12.4185 81.6677 12.4122 81.6863 12.4062C81.8124 12.3643 81.9231 12.313 82.0232 12.2535C82.0628 12.2295 82.0999 12.205 82.137 12.1795C82.2091 12.1285 82.2729 12.074 82.3355 12.0126C82.5267 11.8227 82.6472 11.6121 82.7312 11.4405C82.9397 11.0142 83.0269 10.2428 83.1385 9.8454C83.1684 9.74024 83.2043 9.66719 83.2408 9.61681C83.3232 9.50314 83.5166 9.30698 83.5355 9.05352C83.5543 8.801 83.3879 8.57902 83.2291 8.5532C83.1369 8.5384 83.0404 8.52392 82.941 8.51006C82.0144 8.38254 80.8018 8.31328 80.0617 8.49904C79.1307 8.73488 78.7916 9.02361 78.2817 9.00849C77.8055 8.9896 77.5218 8.67977 76.6823 8.38317C76.0148 8.1486 74.8803 8.13727 74.0059 8.20276C73.9121 8.20968 73.8216 8.21787 73.7344 8.22637C73.5847 8.2418 73.4026 8.46472 73.3928 8.7163ZM79.36 9.38727C79.4137 9.31643 79.5103 9.2437 79.6364 9.17694C79.6522 9.1675 79.6682 9.15931 79.6855 9.15144C79.6943 9.14672 79.7034 9.14231 79.7122 9.13822C79.7544 9.11775 79.7991 9.0976 79.8456 9.07902C79.8846 9.06296 79.9255 9.0469 79.9683 9.03179C80.0916 8.98708 80.2271 8.94741 80.3671 8.91466C80.419 8.90238 80.4719 8.89073 80.525 8.88066C80.6593 8.85389 80.7952 8.83532 80.9308 8.82367C80.9635 8.82052 80.9953 8.818 81.0251 8.81768C81.9096 8.75975 82.4475 8.97701 82.6381 9.16183C82.8359 9.35421 82.6994 10.1779 82.5928 10.5992C82.5903 10.6096 82.5874 10.62 82.5846 10.6304C82.5818 10.6407 82.5793 10.6521 82.5764 10.6631C82.5635 10.7141 82.5481 10.772 82.5293 10.8338C82.5186 10.8678 82.5069 10.9033 82.4947 10.9399C82.4937 10.9418 82.4937 10.943 82.4928 10.9443C82.4733 11.0016 82.4506 11.0605 82.4239 11.1212V11.1219C82.4151 11.1417 82.4056 11.1625 82.3962 11.1823C82.3912 11.194 82.3852 11.2062 82.3783 11.2185C82.3723 11.2321 82.3654 11.2453 82.3575 11.2588C82.349 11.2755 82.3396 11.2928 82.3302 11.3095C82.3198 11.3284 82.3088 11.3473 82.2971 11.3656C82.2852 11.3854 82.2726 11.4049 82.2581 11.4254C82.2452 11.4449 82.2311 11.4654 82.216 11.4852C81.9754 11.8098 81.5828 12.0816 80.9276 12.069C80.2794 12.057 79.8818 11.8224 79.6377 11.5318L79.6371 11.5315C79.3961 11.2428 79.3049 10.8999 79.2665 10.6634C79.1917 10.1873 79.169 9.63853 79.36 9.38727ZM74.2132 8.8709C74.2666 8.82493 74.3431 8.77864 74.4425 8.73771C74.4487 8.73488 74.4538 8.73299 74.4601 8.73047C74.4909 8.71756 74.5233 8.70591 74.5592 8.69457C74.578 8.68891 74.5988 8.68198 74.6192 8.67694C74.6353 8.67253 74.6526 8.66749 74.6689 8.66403C74.6802 8.66057 74.6916 8.65837 74.702 8.65616C74.7064 8.65459 74.7111 8.65364 74.7148 8.65333C74.7306 8.64955 74.7472 8.6464 74.7636 8.64294C74.8275 8.63003 74.8963 8.61995 74.9693 8.61271C75.0052 8.60862 75.0423 8.60547 75.08 8.60389C75.1017 8.60201 75.1238 8.60137 75.1467 8.60012C75.1637 8.59917 75.1807 8.59885 75.1977 8.59885C75.243 8.59854 75.2901 8.59823 75.338 8.5998C75.3549 8.60012 75.3719 8.60074 75.3895 8.60137C75.4049 8.602 75.421 8.60295 75.4373 8.60358C75.5622 8.61051 75.6962 8.62499 75.8387 8.64829C76.4571 8.74905 77.0868 9.05163 77.2352 9.31422C77.3843 9.57745 77.2994 10.1218 77.1764 10.5907C77.1516 10.6836 77.1176 10.7916 77.0689 10.9055C77.066 10.9131 77.0619 10.9216 77.0582 10.9301C77.0538 10.9405 77.0494 10.9512 77.044 10.9619C77.0405 10.9691 77.0377 10.9761 77.0343 10.9833C77.0283 10.9959 77.0223 11.0088 77.0154 11.0211C77.0022 11.0475 76.9887 11.073 76.9742 11.0989C76.9622 11.1209 76.9487 11.1436 76.9352 11.1653C76.9301 11.1735 76.9251 11.1814 76.9201 11.1886C76.9107 11.2028 76.9006 11.2182 76.8899 11.2333C76.8817 11.2456 76.8726 11.2585 76.8625 11.2717C76.8616 11.2736 76.86 11.2758 76.8584 11.278C76.6059 11.6212 76.1819 11.9153 75.4723 11.8766C75.2049 11.8634 74.9894 11.7982 74.8177 11.7012C74.2172 11.3621 74.1311 10.6363 74.0911 10.3026C74.0424 9.8772 74.0078 9.04817 74.2132 8.8709Z" fill="#37474F"/>
<path d="M83.1257 8.63705L85.916 9.49915C85.7603 9.63517 85.5279 9.86376 85.3923 10.1134L83.1411 9.45255L83.1257 8.63705Z" fill="#37474F"/>
<path d="M78.4415 9.79522L78.1207 13.4454L76.1318 12.8311L78.2081 9.73729C78.2666 9.72973 78.3638 9.75146 78.4415 9.79522Z" fill="#CA7666"/>
<path d="M86.0387 17.9321C85.9066 19.809 85.1926 22.5181 85.0115 27.6406C84.8303 32.7631 86.3923 72.2356 86.3923 72.2356C86.3923 72.2356 91.8099 72.9227 95.7989 70.6475C95.7989 70.6475 94.3828 54.359 91.3132 40.9493C90.5171 37.4713 91.9713 33.1576 92.2619 28.4725C92.5267 24.2023 91.2859 20.9473 91.2859 20.9473C91.2859 20.9473 88.3855 19.9772 87.5004 19.462C86.615 18.9476 86.0387 17.9321 86.0387 17.9321Z" fill="#FAFAFA"/>
<path d="M86.2948 18.8871C86.5593 19.1935 86.9084 19.5285 87.3224 19.769C88.1147 20.2297 90.3734 21.0118 91.0091 21.2281C91.2422 21.9167 92.1329 24.8276 91.9084 28.4504C91.803 30.1476 91.5438 31.7943 91.2931 33.3869C90.8584 36.1479 90.4479 38.7559 90.9682 41.0286C93.8006 53.4027 95.2396 68.4229 95.4255 70.4494C93.0885 71.7095 90.2913 71.9784 88.3311 71.9784C87.6193 71.9784 87.056 71.9412 86.7345 71.9135C86.5889 68.2022 85.1958 32.4649 85.3656 27.6532C85.4851 24.2732 85.8412 21.9309 86.101 20.2202C86.174 19.7404 86.2413 19.2967 86.2948 18.8871ZM86.0387 17.9321C85.9066 19.809 85.1926 22.5181 85.0115 27.6406C84.8303 32.7631 86.3923 72.2356 86.3923 72.2356C86.3923 72.2356 87.1604 72.3329 88.3308 72.3329C90.2693 72.3329 93.3115 72.0659 95.7989 70.6475C95.7989 70.6475 94.3828 54.359 91.3132 40.9493C90.5171 37.4713 91.9713 33.1576 92.2619 28.4725C92.5267 24.2023 91.2859 20.9473 91.2859 20.9473C91.2859 20.9473 88.3855 19.9772 87.5004 19.462C86.615 18.9476 86.0387 17.9321 86.0387 17.9321Z" fill="#EBEBEB"/>
<path d="M73.069 45.2522C73.2885 45.2345 73.509 45.2519 73.7273 45.2789C73.9689 45.3092 74.1928 45.3523 74.4379 45.3618C74.6942 45.3715 74.9506 45.3753 75.2069 45.3734C75.5674 45.3706 75.9304 45.3866 76.2905 45.3624C76.9718 45.3167 77.6471 45.1832 78.2944 44.9663C78.5017 44.8967 78.7058 44.8189 78.9065 44.7323C78.9996 44.6924 79.1097 44.6143 79.0795 44.5173C79.0625 44.4622 79.0053 44.4317 78.9525 44.4087C78.658 44.2796 78.3429 44.2056 78.04 44.0982C77.7371 43.9908 77.4373 43.8435 77.2266 43.6004C77.0787 43.4298 76.8268 42.92 77.0391 42.7084C77.1983 42.5497 77.6084 42.6955 77.7902 42.7371C78.1796 42.8262 78.5731 42.9046 78.9723 42.9231C79.401 42.9433 79.8306 42.8945 80.26 42.909C80.8161 42.9275 81.3681 43.0548 81.8777 43.2789C82.3573 43.4899 82.8068 43.7774 83.3057 43.9474C84.2543 44.2708 85.6197 43.9102 86.8295 43.5006C89.3083 42.6615 93.5817 40.5037 93.5817 40.5037L90.9829 31.0644C89.9198 28.5572 89.5068 22.2634 90.7788 21.1526C91.4368 21.2366 93.6015 20.9765 95.3777 22.9026C96.3462 23.9529 96.9919 26.5235 98.3246 31.3025C99.2726 34.7024 100.032 37.8979 100.593 41.0261C101.217 44.5075 99.9571 45.6946 96.839 46.3955C91.6234 47.5683 87.5343 48.6496 85.4395 48.7953C85.404 48.7979 85.3681 48.8007 85.3326 48.8035C84.3065 48.8876 83.2859 49.0334 82.2611 49.1304C81.7336 49.1801 81.1961 49.1741 80.6774 49.2509C80.0172 49.3489 79.3129 49.3451 78.7005 49.0482C77.9321 48.6754 77.3656 47.8731 76.5211 47.7475C76.2682 47.71 76.0046 47.7377 75.7602 47.6625C75.3321 47.5308 75.0669 47.1341 74.7071 46.8932C74.4876 46.7462 74.2164 46.6643 73.9739 46.5623C73.7003 46.4471 73.4266 46.3322 73.1533 46.2169C72.9558 46.1338 72.7573 46.05 72.5761 45.9357C72.5192 45.8999 72.4632 45.8599 72.4239 45.8051C72.1744 45.459 72.8457 45.2701 73.069 45.2522Z" fill="#E0A187"/>
<path d="M90.4491 20.6895C94.3761 21.4939 94.8372 21.6907 95.8997 23.3617C97.1808 25.3762 98.1103 29.6999 99.5638 35.2311C100.51 38.8319 100.935 41.7506 100.994 42.6666C101.053 43.5825 100.688 45.6269 98.4833 46.1792C96.2784 46.7315 93.334 47.3565 93.334 47.3565C93.334 47.3565 93.9625 43.1049 91.9557 41.2088L93.4463 40.4525L90.2607 30.8079C90.2607 30.8079 88.2401 23.4436 90.4491 20.6895Z" fill="#F0F0F0"/>
<path d="M93.4462 40.452C93.4462 40.452 95.2888 39.9208 97.3292 40.5779C97.3292 40.5779 96.3123 39.4038 93.2021 39.644L93.4462 40.452Z" fill="#E0E0E0"/>
<path d="M88.6914 19.9882C87.9781 19.6712 86.8655 18.8557 86.5626 18.2773C86.2594 17.6989 86.2821 17.4259 86.0056 17.4281L86.0408 17.964C86.0408 17.964 84.7968 22.5862 84.8072 27.1016L84.8151 27.0941C84.7628 30.1866 85.0837 34.1668 85.0837 34.1668C86.0138 31.9789 86.9939 28.9411 86.9939 28.9411L85.8137 26.1082C86.5586 23.3097 88.1753 21.4816 88.6914 19.9882Z" fill="#F0F0F0"/>
<path d="M82.9 22.0434L82.6672 21.7758C85.0467 19.6992 86.8009 16.4442 86.983 16.0248C86.9837 16.0223 87.4243 14.7682 87.0547 12.6992L87.4036 12.6365C87.7917 14.8081 87.3315 16.1025 87.312 16.1564C87.0865 16.675 85.3345 19.9187 82.9 22.0434Z" fill="#455A64"/>
<path d="M78.194 17.923C78.0984 18.1001 77.9814 18.3162 77.854 18.5609C77.7653 18.4867 77.6379 18.4263 77.5278 18.4121C77.6307 18.2102 77.7298 18.0259 77.8185 17.8702C77.9389 17.8944 78.0629 17.9123 78.194 17.923Z" fill="#455A64"/>
<path d="M87.422 11.5937L87.4207 11.5956C87.2918 11.3299 87.0257 11.1419 86.7102 11.1347C86.2607 11.1243 85.8883 11.4804 85.8779 11.9303C85.8685 12.3406 86.1645 12.6835 86.5573 12.7493C86.5573 12.7493 86.8737 12.7417 86.975 13.2197C87.0763 13.6976 87.0697 13.8157 87.0675 14.1161C87.2059 14.2002 87.5513 14.1715 87.639 13.992C87.7658 13.3636 87.6632 12.0027 87.422 11.5937Z" fill="#37474F"/>
<path d="M65.4501 38.2306C63.9384 38.2306 62.3714 37.9478 60.865 37.292C58.0587 36.07 53.3513 32.4928 53.3513 22.2648H54.06C54.06 29.5454 56.5772 34.6512 61.1478 36.6415C65.3909 38.4897 70.1361 37.1953 72.4476 35.0397C74.6157 33.0174 75.1338 30.6984 75.5908 28.6524C75.838 27.546 76.0717 26.5007 76.5458 25.6502L77.1644 25.9959C76.7411 26.7566 76.5285 27.7069 76.2825 28.8073C75.8264 30.8473 75.2593 33.3867 72.9308 35.5586C71.2797 37.0983 68.4753 38.2306 65.4501 38.2306Z" fill="#4E74C2"/>
<path opacity="0.3" d="M65.4501 38.2306C63.9384 38.2306 62.3714 37.9478 60.865 37.292C58.0587 36.07 53.3513 32.4928 53.3513 22.2648H54.06C54.06 29.5454 56.5772 34.6512 61.1478 36.6415C65.3909 38.4897 70.1361 37.1953 72.4476 35.0397C74.6157 33.0174 75.1338 30.6984 75.5908 28.6524C75.838 27.546 76.0717 26.5007 76.5458 25.6502L77.1644 25.9959C76.7411 26.7566 76.5285 27.7069 76.2825 28.8073C75.8264 30.8473 75.2593 33.3867 72.9308 35.5586C71.2797 37.0983 68.4753 38.2306 65.4501 38.2306Z" fill="white"/>
<path d="M84.9683 20.1081C83.8558 21.5196 82.0736 23.183 81.9956 23.2542C81.2656 23.8464 79.2745 25.4034 77.8783 25.9781C77.5487 26.1128 77.2511 26.1944 77.0136 26.1944C76.9287 26.1944 76.8472 26.1837 76.7761 26.1626C76.5317 26.081 75.791 25.8433 76.0143 21.6792C76.0533 20.9487 77.1092 18.8842 77.3219 18.4799C77.3574 18.4198 77.4389 18.4018 77.5273 18.4125C77.637 18.4267 77.7647 18.4871 77.8534 18.5615C77.9421 18.6395 77.9915 18.7283 77.9491 18.8061C77.4886 19.6928 76.7478 21.2677 76.723 21.718C76.6098 23.8423 76.7834 25.3074 77.0171 25.4954C77.1659 25.5451 77.5096 25.4211 77.9632 25.1799C78.8987 24.6903 80.316 23.7044 81.5313 22.7183C81.5313 22.7183 83.3311 21.0372 84.4119 19.6679C84.6069 19.473 85.1029 19.9305 84.9683 20.1081Z" fill="#4E74C2"/>
<path opacity="0.3" d="M84.9683 20.1081C83.8558 21.5196 82.0736 23.183 81.9956 23.2542C81.2656 23.8464 79.2745 25.4034 77.8783 25.9781C77.5487 26.1128 77.2511 26.1944 77.0136 26.1944C76.9287 26.1944 76.8472 26.1837 76.7761 26.1626C76.5317 26.081 75.791 25.8433 76.0143 21.6792C76.0533 20.9487 77.1092 18.8842 77.3219 18.4799C77.3574 18.4198 77.4389 18.4018 77.5273 18.4125C77.637 18.4267 77.7647 18.4871 77.8534 18.5615C77.9421 18.6395 77.9915 18.7283 77.9491 18.8061C77.4886 19.6928 76.7478 21.2677 76.723 21.718C76.6098 23.8423 76.7834 25.3074 77.0171 25.4954C77.1659 25.5451 77.5096 25.4211 77.9632 25.1799C78.8987 24.6903 80.316 23.7044 81.5313 22.7183C81.5313 22.7183 83.3311 21.0372 84.4119 19.6679C84.6069 19.473 85.1029 19.9305 84.9683 20.1081Z" fill="white"/>
<path d="M55.4816 21.0446C55.4816 20.3116 55.0363 19.4599 54.4871 19.1425C54.238 18.9986 54.0106 18.9895 53.8363 19.0906C53.7904 19.117 53.0934 19.5213 53.0468 19.5484C52.837 19.6706 52.7046 19.9524 52.7046 20.3522C52.7046 21.0852 53.15 21.9369 53.6992 22.2543C53.948 22.3982 54.1754 22.4073 54.3496 22.3066C54.3955 22.2801 55.0922 21.8762 55.1385 21.8494C55.3486 21.7272 55.4816 21.4451 55.4816 21.0446Z" fill="#263238"/>
<path d="M54.2993 22.3396C54.7383 22.1526 54.8265 21.3714 54.4964 20.5947C54.1663 19.818 53.5428 19.3399 53.1039 19.5268C52.6649 19.7137 52.5767 20.495 52.9068 21.2717C53.2369 22.0484 53.8604 22.5265 54.2993 22.3396Z" fill="#263238"/>
<path d="M55.0109 22.0606C55.0109 20.718 54.1953 19.1582 53.1894 18.577C52.7336 18.3134 52.3168 18.2964 51.9976 18.4816C51.9136 18.5301 51.5773 18.7234 51.4921 18.7728C51.1081 18.9964 50.8652 19.5124 50.8652 20.2451C50.8652 21.5877 51.6808 23.1475 52.6867 23.7288C53.1425 23.992 53.5589 24.0093 53.8782 23.8245C53.9622 23.776 54.2978 23.583 54.3824 23.5339C54.7671 23.3109 55.0109 22.7943 55.0109 22.0606Z" fill="#37474F"/>
<path d="M54.5077 22.3504C54.5077 23.6929 53.6921 24.3101 52.6862 23.7288C51.6803 23.1473 50.8647 21.5878 50.8647 20.2452C50.8647 18.9026 51.6803 18.2855 52.6862 18.8667C53.6921 19.448 54.5077 21.0078 54.5077 22.3504Z" fill="#455A64"/>
<path d="M54.1027 22.1164C54.1027 23.1605 53.4685 23.6406 52.686 23.1885C51.9037 22.7363 51.2693 21.5232 51.2693 20.4791C51.2693 19.435 51.9034 18.9548 52.686 19.407C53.4682 19.8591 54.1027 21.0723 54.1027 22.1164Z" fill="#E0E0E0"/>
<path d="M55.7489 19.5065C55.5605 18.8453 55.3969 18.1003 55.1777 18.094C54.8093 18.0839 54.1161 18.7996 54.3262 19.9032C54.5269 20.9558 55.0361 22.1844 55.0735 22.4911L56.9624 21.1403C56.3572 20.6746 55.9373 20.1677 55.7489 19.5065Z" fill="#E0A187"/>
<path d="M46.9531 80.7092L48.2824 87.3098L49.5744 88.0568L50.855 87.3166L52.1956 80.7092L49.574 79.1941L46.9531 80.7092Z" fill="#455A64"/>
<path d="M49.5744 88.0568L49.574 82.224L46.9531 80.7093L48.2824 87.3099L49.5744 88.0568Z" fill="#37474F"/>
<path opacity="0.2" d="M46.9531 80.7092L47.8116 84.9718L49.5747 85.9906L51.33 84.9761L52.1956 80.7092L49.574 79.1941L46.9531 80.7092Z" fill="black"/>
<path d="M28.4087 69.9909L29.7379 76.5916L31.0299 77.3385L32.3105 76.5983L33.6511 69.9909L31.0296 68.4758L28.4087 69.9909Z" fill="#455A64"/>
<path d="M31.0299 77.3384L31.0296 71.5059L28.4087 69.9908L29.7379 76.5915L31.0299 77.3384Z" fill="#37474F"/>
<path opacity="0.2" d="M28.4087 69.9909L29.2672 74.2538L31.0302 75.2724L32.7853 74.2581L33.6511 69.9909L31.0296 68.4758L28.4087 69.9909Z" fill="black"/>
<path d="M32.9858 67.0178V53.1725L27.6858 50.1102V70.0821L32.9858 67.0178Z" fill="#1E3565"/>
<path opacity="0.5" d="M32.9858 67.0178V53.1725L27.6858 50.1102V70.0821L32.9858 67.0178Z" fill="black"/>
<path d="M25.7312 46.7149L29.089 44.7733L52.933 58.5539L49.5755 60.4956L25.7312 46.7149Z" fill="#1E3565"/>
<g opacity="0.4">
<path d="M25.7314 46.715L29.0893 44.7733L52.9333 58.5539L49.5757 60.4956L25.7314 46.715Z" fill="white"/>
</g>
<path d="M49.5752 60.4956V84.9944L52.9327 83.053V58.554L49.5752 60.4956Z" fill="#1E3565"/>
<path d="M25.729 46.715V71.2116L49.5742 84.9941V60.4975L25.729 46.715ZM47.6173 81.5992L27.6856 70.0821V50.1102L47.6173 61.6273V81.5992Z" fill="#1E3565"/>
<path opacity="0.3" d="M25.729 46.715V71.2116L49.5742 84.9941V60.4975L25.729 46.715ZM47.6173 81.5992L27.6856 70.0821V50.1102L47.6173 61.6273V81.5992Z" fill="black"/>
<path d="M31.0455 68.1393L27.6858 70.0822L47.6175 81.5992V77.7149L31.0455 68.1393Z" fill="#1E3565"/>
<path opacity="0.5" d="M31.0455 68.1393L27.6858 70.0822L47.6175 81.5992V77.7149L31.0455 68.1393Z" fill="black"/>
<path d="M31.0456 68.1391L27.6843 70.0802V50.1114L31.0416 52.0521L31.0456 68.1391Z" fill="#1E3565"/>
<path opacity="0.4" d="M31.0456 68.1391L27.6843 70.0802V50.1114L31.0416 52.0521L31.0456 68.1391Z" fill="black"/>
<path d="M22.3936 63.7517L0.816358 76.2177C0.0363585 76.6683 -0.595947 77.7642 -0.595947 78.6658V83.1618C-0.595947 84.0633 0.0363585 85.1592 0.816358 85.6098L23.2329 98.5869C24.0129 99.0375 25.2773 99.0375 26.0573 98.5869L47.6295 86.1184C48.4095 85.6677 49.0415 84.5715 49.0415 83.67V79.1774C49.0415 78.2758 48.4092 77.1796 47.6295 76.729L25.2182 63.7523C24.4382 63.3014 23.1736 63.3011 22.3936 63.7517Z" fill="#E5E5E5"/>
<path d="M47.6294 76.7286L25.218 63.7519C24.438 63.3013 23.1737 63.301 22.3937 63.7516L0.816484 76.2176C0.0364851 76.6682 0.0364829 77.3988 0.816174 77.8494L23.2331 90.8292C24.0131 91.2802 25.2774 91.2802 26.0574 90.8292L47.6294 78.3607C48.4094 77.9101 48.4094 77.1795 47.6294 76.7286Z" fill="#5A5A5A"/>
<path d="M-0.595947 83.1616V78.6659C-0.595947 77.7644 0.0363564 77.3991 0.816048 77.8497L23.2329 90.8295C24.0129 91.2804 24.6449 92.3763 24.6449 93.2779V97.7705C24.6449 98.672 24.0126 99.0373 23.2329 98.5867L0.816358 85.6097C0.0363585 85.159 -0.595947 84.0628 -0.595947 83.1616Z" fill="#717171"/>
<path d="M24.6448 97.7704V93.2778C24.6448 92.3763 25.2771 91.2801 26.0568 90.8295L47.6288 78.3609C48.4088 77.9103 49.0407 78.2756 49.0407 79.1772V83.6698C49.0407 84.5713 48.4084 85.6675 47.6288 86.1181L26.0565 98.5867C25.2771 99.0373 24.6448 98.6717 24.6448 97.7704Z" fill="#A1A1A1"/>
<path d="M22.3936 55.3789L0.816358 67.8453C0.0363585 68.2959 -0.595947 69.3918 -0.595947 70.2934V74.7891C-0.595947 75.6903 0.0363585 76.7865 0.816358 77.2371L23.2329 90.2141C24.0129 90.6648 25.2773 90.6648 26.0573 90.2141L47.6295 77.7456C48.4095 77.295 49.0415 76.1988 49.0415 75.2973V70.8043C49.0415 69.9028 48.4092 68.8066 47.6295 68.356L25.2182 55.3793C24.4382 54.9286 23.1736 54.9283 22.3936 55.3789Z" fill="#E5E5E5"/>
<path d="M47.6291 68.3559L25.218 55.3792C24.438 54.9286 23.1737 54.9283 22.3937 55.3789L0.816484 67.8452C0.036485 68.2959 0.0364829 69.0265 0.816174 69.4771L23.2331 82.4569C24.0131 82.9075 25.2774 82.9075 26.0574 82.4569L47.6294 69.9884C48.409 69.5374 48.4091 68.8065 47.6291 68.3559Z" fill="#E5E5E5"/>
<path d="M-0.595947 74.789V70.293C-0.595947 69.3915 0.0363564 69.0262 0.816048 69.4768L23.2329 82.4566C24.0129 82.9072 24.6449 84.0034 24.6449 84.9049V89.3973C24.6449 90.2988 24.0126 90.6641 23.2329 90.2135L0.816358 77.2365C0.0363585 76.7865 -0.595947 75.6903 -0.595947 74.789Z" fill="#717171"/>
<path d="M24.6448 89.3976V84.9053C24.6448 84.0038 25.2771 82.9076 26.0568 82.457L47.6288 69.9885C48.4088 69.5375 49.0407 69.9031 49.0407 70.8047V75.2973C49.0407 76.1988 48.4084 77.295 47.6288 77.7457L26.0565 90.2142C25.2771 90.6645 24.6448 90.2992 24.6448 89.3976Z" fill="#A1A1A1"/>
<path d="M23.282 35.8799L25.7565 37.31C26.5364 37.7606 27.2651 38.8503 27.3838 39.7442L29.6026 56.4136C29.7217 57.3071 29.1857 58.3969 28.4057 58.8475L6.8334 71.316C6.0534 71.7666 4.78878 71.7672 4.00847 71.3172L1.53001 69.8878C0.749707 69.4378 0.020787 68.3486 -0.0976744 67.4548L-2.31214 50.7823C-2.4309 49.8888 -1.8949 48.799 -1.1149 48.3481L20.458 35.8799C21.2377 35.4293 22.5023 35.4293 23.282 35.8799Z" fill="#E5E5E5"/>
<path d="M1.50988 69.8957L4.00557 71.3224C4.78741 71.7693 5.32495 71.4074 5.20618 70.5138L2.98772 53.8444C2.86864 52.9509 2.14003 51.8611 1.36034 51.4102L-1.11412 49.9801C-1.89412 49.5295 -2.43073 49.8886 -2.3132 50.7822L-0.118735 67.4679C-0.00119662 68.3618 0.728033 69.4487 1.50988 69.8957Z" fill="#717171"/>
<path d="M-1.11442 48.3482L20.4575 35.88C21.2375 35.4293 22.5019 35.4293 23.2815 35.88L25.756 37.31C26.536 37.7607 26.536 38.4916 25.756 38.9422L4.18403 51.4107C3.40403 51.8613 2.13973 51.8613 1.35973 51.4107L-1.11473 49.9806C-1.89443 49.5297 -1.89442 48.7991 -1.11442 48.3482Z" fill="#E5E5E5"/>
<path d="M25.7561 38.942L4.18412 51.4105C3.40412 51.8611 2.86843 52.9509 2.98751 53.8444L5.20597 70.5138C5.32505 71.4074 6.05366 71.7662 6.83335 71.3156L28.4056 58.8471C29.1856 58.3965 29.7213 57.3067 29.6026 56.4132L27.3838 39.7437C27.2647 38.8502 26.5361 38.4914 25.7561 38.942Z" fill="#A1A1A1"/>
<path d="M46.1937 88.8465C46.5755 86.5946 47.1537 83.1495 47.5093 80.85C48.0773 77.181 48.4555 73.3576 47.7967 71.7113C47.1733 70.154 43.9226 68.1378 40.5007 66.0751C37.0789 64.012 30.4712 60.5805 30.4712 60.5805L13.0112 63.632C13.4285 66.7613 13.5995 68.2943 15.1743 71.0842C16.698 73.7839 18.826 75.4989 22.9903 77.6547C26.726 79.5886 31.1524 81.6656 32.1315 82.1581C33.3715 82.7815 34.5294 83.2617 35.1072 85.1913C35.6577 87.0298 36.4007 90.2454 38.7272 94.0814C41.3915 98.4745 43.7654 102.382 43.7654 102.382C43.7654 102.382 48.0195 102.839 50.3026 99.4817C50.302 99.482 48.329 94.3235 46.1937 88.8465Z" fill="#263238"/>
<path d="M46.1936 88.8465C46.4671 87.4293 46.7302 86.01 46.9788 84.5883C47.2278 83.1662 47.4708 81.7444 47.6998 80.3183C47.9028 78.8882 48.0856 77.4529 48.1671 76.0081C48.2059 75.2858 48.2238 74.5613 48.1899 73.8378C48.1459 73.1174 48.0613 72.3856 47.7967 71.7116C48.0278 72.3976 48.0748 73.1245 48.0834 73.8412C48.0951 74.5601 48.0588 75.2796 47.9998 75.997C47.8841 77.432 47.7038 78.8621 47.4844 80.2863L46.8142 84.5618C46.5942 85.9875 46.3887 87.4161 46.1936 88.8465Z" fill="#263238"/>
<path d="M16.1176 65.3744L27.5069 65.4652L28.5232 67.5406C27.4481 69.8904 26.3146 69.8565 23.8983 69.8768C21.482 69.8972 18.1496 70.4368 18.1496 70.4368C18.1496 70.4368 30.7952 78.1423 33.2296 79.5114C35.6644 80.8805 37.2908 83.3889 38.5804 88.4753C39.6136 92.55 43.6801 99.0286 46.025 102.223C44.7496 102.487 43.765 102.382 43.765 102.382C43.765 102.382 41.3912 98.4745 38.7269 94.0817C36.4004 90.2458 35.6573 87.0302 35.1069 85.1916C34.529 83.262 33.3712 82.7818 32.1312 82.1584C31.1521 81.6662 26.7256 79.589 22.9899 77.655C18.8256 75.4992 16.6976 73.7842 15.174 71.0845C14.0746 69.1364 13.6598 67.8002 13.3672 66.1065L16.1176 65.3744Z" fill="black"/>
<path d="M45.6897 87.5531C43.6814 82.4192 41.6568 77.3398 41.09 76.2547C39.8829 73.9514 29.6654 67.5769 29.3442 67.376C29.3408 67.3723 29.3374 67.372 29.3374 67.372L29.8072 66.6836C30.6414 65.3611 30.7728 64.008 30.7728 64.008C30.8322 65.3028 30.6254 66.4169 30.3506 67.0385C31.9208 68.0583 35.9159 70.6533 37.5168 71.7581C39.5288 73.1488 41.6691 74.8317 42.5675 77.2453C43.2318 79.037 44.8817 84.7256 45.6897 87.5531Z" fill="black"/>
<path d="M49.8339 31.9286C49.544 31.884 49.2403 31.9434 48.9665 32.0549C48.6419 32.187 48.3511 32.3879 48.0582 32.5807C47.6105 32.8751 46.7092 33.7289 46.0788 34.1531C45.6831 34.4192 45.2846 34.7759 44.8016 34.8291C44.6394 34.847 44.2976 34.8341 44.4852 34.5997C44.7302 34.2938 45.0025 34.0055 45.1917 33.6624C45.3809 33.3193 45.48 32.9016 45.3489 32.5323C45.3092 32.4211 45.2446 32.3115 45.1403 32.2563C44.9923 32.1781 44.9111 32.2551 44.8188 32.3497C44.7219 32.4495 44.6077 32.5326 44.4979 32.6198C44.2714 32.7991 44.0453 32.9789 43.8213 33.1616C42.5145 34.2273 40.7283 35.3478 40.1074 36.9563C40.0176 37.1891 39.6068 38.2493 39.4991 40.0465C39.3914 41.8434 38.6843 46.839 38.6843 46.839C38.6843 46.839 34.9702 44.9694 32.5317 43.5729C29.828 42.0245 28.4628 41.0879 26.4967 40.786C24.6376 40.5008 22.9502 41.2484 22.9502 41.2484L30.0603 50.2992C30.0603 50.2992 35.1385 52.4014 38.5585 53.6987C41.5197 54.8223 42.7148 54.6929 43.3428 53.8056C44.3105 52.4383 44.9929 52.3875 44.1268 44.5219C44.0656 43.965 44.0616 43.4035 44.0286 42.8441C44.0102 41.6793 43.7868 40.8849 44.6677 40.2784C45.9009 39.4296 46.7603 38.7717 47.9385 37.6825C48.3972 37.2584 48.4994 36.7025 48.8732 36.2007C49.0299 35.9903 49.2994 35.6866 49.3406 35.4211C49.3828 35.1519 49.2797 34.859 49.376 34.5966C49.4415 34.4173 49.572 34.275 49.6283 34.0831C49.7431 33.6917 49.7332 33.2352 50.0037 32.9053C50.1523 32.7242 50.392 32.5665 50.3726 32.3327C50.3572 32.1458 50.1726 32.0183 49.9929 31.964C49.9409 31.949 49.8877 31.9369 49.8339 31.9286Z" fill="#CA8082"/>
<path d="M38.6842 46.8391C38.3005 48.7481 38.9313 51.0887 38.9313 51.0887C38.9313 51.0887 37.4365 48.6745 37.9451 46.4612L38.6842 46.8391Z" fill="#CA8082"/>
<path d="M24.002 40.5329C26.3407 40.5329 27.3056 40.7855 28.9989 41.4686C30.6924 42.1521 38.6189 46.738 38.6189 46.738C38.6189 46.738 38.8142 45.8959 38.9539 44.857C39.4536 45.5091 40.021 45.9877 41.789 46.2582C43.7539 46.5588 44.2256 45.3819 44.2256 45.3819C44.2256 45.3819 44.5749 47.9667 44.6576 50.7988C44.7207 52.9484 44.0275 55.1359 40.7887 54.7167C40.1936 54.6397 37.8635 53.915 35.8093 53.3057C33.7552 52.6962 29.1536 51.0274 29.1536 51.0274L24.002 40.5329Z" fill="#6585C7"/>
<path opacity="0.15" d="M24.002 40.5329C26.3407 40.5329 27.3056 40.7855 28.9989 41.4686C30.6924 42.1521 38.6189 46.738 38.6189 46.738C38.6189 46.738 38.8142 45.8959 38.9539 44.857C39.4536 45.5091 40.021 45.9877 41.789 46.2582C43.7539 46.5588 44.2256 45.3819 44.2256 45.3819C44.2256 45.3819 44.5749 47.9667 44.6576 50.7988C44.7207 52.9484 44.0275 55.1359 40.7887 54.7167C40.1936 54.6397 37.8635 53.915 35.8093 53.3057C33.7552 52.6962 29.1536 51.0274 29.1536 51.0274L24.002 40.5329Z" fill="white"/>
<path opacity="0.15" d="M38.6196 46.7384C38.3285 48.3598 38.1743 50.1974 38.9316 51.5351C37.8749 50.7364 37.618 48.7596 37.8399 46.29L38.6196 46.7384Z" fill="black"/>
<path d="M44.0293 35.5796C43.7964 36.7497 42.8773 38.1773 42.2869 38.6415C42.2869 38.6415 43.2564 38.3313 43.6973 37.5302C44.1807 36.6524 44.1564 36.0176 44.0293 35.5796Z" fill="#B2595D"/>
<path d="M14.9461 41.4631L9.81932 44.2836C9.56455 45.7786 9.56455 52.1781 10.2449 57.1879C11.0341 62.9988 13.6085 67.7246 13.6085 67.7246C13.6085 67.7246 19.1809 69.9582 25.7104 67.1243C31.4864 64.6171 31.6519 61.1868 31.6519 61.1868L30.3359 57.7143C30.3359 57.7143 29.0658 47.8297 27.3082 44.517C25.5692 41.2389 24.0027 40.5332 24.0027 40.5332L20.3202 40.8668L14.9461 41.4631Z" fill="#1E3565"/>
<path d="M22.7332 31.1981C24.2079 29.9926 23.467 27.7352 22.6772 26.3473C21.6661 24.6246 19.2359 23.7942 17.2295 24.0437C13.003 24.5692 11.1932 26.2601 10.6446 29.3103C9.9301 33.2827 13.1043 36.393 14.059 38.4675L14.2132 35.9224C15.1895 35.7376 16.0089 35.964 16.9101 35.5247C19.0996 34.4581 20.9953 32.8873 22.7332 31.1981Z" fill="#37474F"/>
<path d="M14.8956 26.5266C14.9783 27.3733 15.2122 29.3846 14.1165 30.5464C14.3396 31.4825 14.5645 32.4404 14.4626 33.3974C14.4408 33.6025 14.4026 33.8101 14.3032 33.9912C14.2042 34.172 14.0349 34.3239 13.8319 34.359C13.5586 34.4064 13.4288 34.2496 13.3229 34.042C13.186 33.7737 12.9971 33.5295 12.8254 33.28C12.7426 33.1596 12.6516 33.0863 12.5506 32.9945C12.0937 32.6477 10.8057 32.2965 10.3596 33.6746C9.89772 35.1019 11.0811 36.5172 12.0891 36.7861C13.5051 37.1637 13.8906 36.2243 13.8906 36.2243L14.3119 41.8584C14.9356 43.2595 18.7088 45.9897 21.6872 46.9322C22.6315 44.8291 21.9808 42.0626 21.0195 41.2682L20.9183 39.4075C20.9183 39.4075 21.9562 39.4821 23.0642 38.9492C23.8885 38.5528 24.4999 37.6405 24.6765 36.2323C25.0854 32.9748 24.386 30.0145 23.8962 28.4156C23.4134 26.8386 22.2666 25.6386 21.8426 25.3589C21.8946 25.7064 21.6992 26.6193 20.2503 27.0022C18.4426 27.479 16.2743 26.9437 14.8956 26.5266Z" fill="#CA8082"/>
<path d="M20.9185 39.407C19.3126 39.4184 17.6723 39.2527 16.7308 38.8677C16.04 38.5852 14.9388 37.8749 14.7305 37.5093C14.7305 37.5093 15.1609 38.6773 16.1911 39.3078C18.0554 40.4487 20.9634 40.2312 20.9634 40.2312L20.9185 39.407Z" fill="#B2595D"/>
<path d="M16.1434 31.8253C16.1449 31.8103 16.1486 31.7964 16.1557 31.7829C16.1637 31.7675 16.1782 31.761 16.1871 31.7475C16.2052 31.7195 16.2806 31.7133 16.3129 31.7066C16.3468 31.6995 16.3813 31.6936 16.4154 31.6887C16.4843 31.6792 16.5523 31.6749 16.6219 31.6752C16.7551 31.6758 16.8896 31.6875 17.0206 31.7121C17.0837 31.7238 17.0742 31.8623 17.0111 31.8527C16.8711 31.8315 16.7323 31.8256 16.5914 31.8423C16.524 31.8503 16.4563 31.8592 16.3896 31.8718C16.3539 31.8786 16.3185 31.8863 16.2831 31.8949C16.2477 31.9038 16.2046 31.9269 16.1714 31.9023C16.1474 31.8847 16.1406 31.854 16.1434 31.8253Z" fill="#B2595D"/>
<path d="M16.7345 32.1653C16.7874 32.1502 16.8462 32.1342 16.9019 32.137C16.9219 32.1379 16.9438 32.1407 16.9625 32.1468C16.9893 32.1551 17.0173 32.1782 17.041 32.1924C17.069 32.209 17.0724 32.2828 17.0379 32.2951C16.9881 32.313 16.9394 32.3336 16.8887 32.3487C16.845 32.3616 16.8013 32.3717 16.7588 32.3884C16.7474 32.3927 16.7361 32.3976 16.7247 32.4025C16.7194 32.405 16.6914 32.4139 16.7194 32.4047C16.6961 32.4124 16.6714 32.4293 16.6499 32.4422C16.6333 32.4524 16.6176 32.4637 16.6007 32.4727C16.5724 32.4877 16.541 32.5031 16.5078 32.4951C16.4745 32.4871 16.4558 32.4607 16.4499 32.429C16.4235 32.2847 16.6219 32.197 16.7345 32.1653Z" fill="#B2595D"/>
<path d="M16.756 32.839C16.8418 32.715 16.9732 32.6257 17.1107 32.5676C17.1234 32.5621 17.1421 32.571 17.1504 32.5805C17.16 32.5919 17.1649 32.6054 17.1674 32.6202C17.172 32.6494 17.164 32.6987 17.1332 32.7134C17.1037 32.7279 17.0751 32.7439 17.0471 32.7614C17.0326 32.7704 17.0184 32.7799 17.0046 32.7897C16.9981 32.7944 16.9917 32.799 16.9852 32.8039C16.9803 32.8076 16.98 32.8082 16.9849 32.8042C16.9794 32.8085 16.9741 32.8128 16.9686 32.8174C16.9434 32.8384 16.9191 32.8605 16.896 32.8842C16.872 32.9088 16.8526 32.9291 16.8267 32.9577C16.8037 32.9833 16.7667 32.9781 16.7498 32.9497C16.7307 32.9171 16.7347 32.8694 16.756 32.839Z" fill="#CA8082"/>
<path d="M23.6877 30.8113C23.6898 30.8089 23.6917 30.8064 23.6938 30.804C23.7427 30.7477 23.8009 30.7197 23.8643 30.684C23.9267 30.6492 23.9877 30.6193 24.0572 30.6006C24.1018 30.5883 24.1338 30.6212 24.139 30.6636C24.1446 30.7101 24.1227 30.7683 24.0803 30.7923C24.0812 30.8046 23.9529 30.8572 23.9363 30.8658C23.8867 30.892 23.823 30.8984 23.7686 30.9113C23.7403 30.9181 23.7107 30.9249 23.6821 30.9187C23.6717 30.9166 23.6609 30.912 23.6563 30.9021C23.6541 30.8978 23.6538 30.8932 23.6538 30.8883C23.6541 30.86 23.6695 30.8341 23.6877 30.8113Z" fill="#B2595D"/>
<path d="M18.7776 35.8762C18.9318 35.7594 19.0786 35.6338 19.2081 35.4899C19.5269 35.1357 19.8013 34.6928 19.909 34.2243C19.9158 34.1944 19.8752 34.1196 19.8536 34.172C19.7623 34.3971 19.6709 34.6189 19.5432 34.8268C19.4161 35.0335 19.2659 35.225 19.0955 35.3978C18.9349 35.5608 18.7416 35.7243 18.5503 35.8497C18.3844 35.9584 18.2063 36.0462 18.0309 36.1392C18.0007 36.1552 17.9666 36.1771 17.9653 36.2113C18.2047 36.2162 18.4506 36.1109 18.6432 35.9794C18.6509 35.9741 18.6579 35.9673 18.6656 35.9621C18.6623 35.9978 18.657 36.0345 18.6549 36.069C18.646 36.2116 18.653 36.3536 18.673 36.495C18.6939 36.6428 18.7303 36.7894 18.7819 36.9292C18.8099 37.0053 18.8416 37.0811 18.8798 37.1529C18.9041 37.1988 18.9327 37.2674 18.9844 37.2859C18.977 37.2191 18.9407 37.1584 18.9146 37.0974C18.8866 37.0321 18.8601 36.9668 18.8383 36.8994C18.7949 36.7654 18.7641 36.6277 18.749 36.4876C18.7349 36.3542 18.7336 36.2177 18.7447 36.0841C18.7515 36.0129 18.7638 35.9442 18.7776 35.8762Z" fill="#B2595D"/>
<path d="M20.9611 36.3857C20.9091 36.3632 20.8389 36.374 20.7845 36.39C20.6805 36.4207 20.6174 36.457 20.5217 36.5447C20.49 36.5737 20.4663 36.5977 20.426 36.653C20.4177 36.6641 20.4079 36.6857 20.4106 36.7004C20.4156 36.7247 20.438 36.714 20.4506 36.7035C20.5094 36.6549 20.5792 36.6192 20.6531 36.6001C20.7503 36.5752 20.8537 36.5786 20.95 36.5503C20.9746 36.5429 20.9974 36.533 21.0168 36.5161C21.0349 36.4998 21.0334 36.4863 21.0266 36.4626C21.0152 36.4226 20.9912 36.3986 20.9611 36.3857Z" fill="#B2595D"/>
<path d="M23.7715 31.3678C23.8829 31.3844 23.9943 31.4007 24.1057 31.4173C24.126 31.4204 24.1503 31.4219 24.1638 31.4065C24.1706 31.3985 24.1727 31.3878 24.174 31.3773C24.1801 31.3167 24.149 31.2653 24.109 31.2228C24.0093 31.1179 23.8066 31.2031 23.7343 31.3034C23.7235 31.3185 23.7143 31.3401 23.7266 31.3539C23.7333 31.3616 23.7444 31.3634 23.7546 31.365C23.7601 31.3659 23.7657 31.3668 23.7715 31.3678Z" fill="#B2595D"/>
<path d="M18.8068 31.8034C18.8495 32.1327 18.6277 32.4324 18.3114 32.4727C17.9948 32.5134 17.7034 32.2793 17.6606 31.95C17.6175 31.6208 17.8394 31.3214 18.156 31.2807C18.4723 31.2404 18.7637 31.4744 18.8068 31.8034Z" fill="#263238"/>
<path d="M18.396 29.9402L17.059 30.657C16.8683 30.2729 17.0126 29.8007 17.3818 29.603C17.751 29.4049 18.2049 29.5558 18.396 29.9402Z" fill="#263238"/>
<path d="M19.611 35.1998L21.3334 35.4012C21.2891 35.8922 20.8679 36.2448 20.3922 36.1894C19.9165 36.134 19.5667 35.6907 19.611 35.1998Z" fill="#B2595D"/>
<path d="M20.755 36.1492C20.5291 35.7492 20.1085 35.4848 19.6304 35.4679C19.707 35.8418 20.0064 36.1433 20.3925 36.1885C20.5196 36.2036 20.6418 36.1873 20.755 36.1492Z" fill="#FFA8A7"/>
<path d="M23.5729 29.802L22.1418 29.4022C22.2415 29.0113 22.6428 28.784 23.0378 28.8942C23.4332 29.0048 23.6729 29.4111 23.5729 29.802Z" fill="#263238"/>
<path d="M23.4449 31.2275C23.488 31.5589 23.2646 31.8604 22.9462 31.9011C22.6274 31.9418 22.3342 31.7064 22.2908 31.375C22.2474 31.0439 22.4711 30.7421 22.7896 30.7011C23.108 30.6604 23.4016 30.8961 23.4449 31.2275Z" fill="#263238"/>
<path d="M20.8988 34.1587L22.7068 33.3015C22.4114 32.1042 20.6237 30.4807 19.7942 30.0849L20.8988 34.1587Z" fill="#B2595D"/>
<path d="M21.6878 46.9315C21.6878 46.9315 20.8736 45.2353 20.5072 44.3735C20.277 44.0146 16.8475 42.7167 15.5503 41.7255C14.4072 40.8517 14.1946 40.2843 14.1946 40.2843L14.3983 42.0129C14.3983 42.0129 16.5647 46.8009 21.6878 46.9315Z" fill="#E0E0E0"/>
<path d="M20.5071 44.3734C20.0471 43.8723 17.5644 46.3662 17.2533 47.0399C17.2533 47.0399 15.4367 46.1857 13.8182 44.5669C12.5844 43.3327 12.5151 42.8676 12.5151 42.8676C12.5151 42.8676 12.9561 41.6854 13.1394 41.143C13.409 40.3453 13.6364 39.4145 14.1099 39.1499L14.1896 40.2144C14.6644 40.8991 15.5037 41.4554 16.9699 42.3319C19.1508 43.6364 20.3022 43.957 20.5071 44.3734Z" fill="#F5F5F5"/>
<path d="M21.0199 41.2674L20.9187 39.4068C21.047 39.4098 21.275 39.4098 21.4658 39.3895C22.6812 39.38 24.7781 43.9071 24.9815 44.9164C24.2802 44.2191 23.0516 43.3844 22.7147 44.325C22.4495 46.3231 21.6876 46.9314 21.6876 46.9314C21.6876 46.9314 22.3005 43.5667 21.0199 41.2674Z" fill="#E0E0E0"/>
<path d="M-4.49756 64.1856L-1.14002 62.2442L22.7043 76.0248L19.3467 77.9662L-4.49756 64.1856Z" fill="#1E3565"/>
<g opacity="0.4">
<path d="M-4.49756 64.1856L-1.14002 62.2442L22.7043 76.0248L19.3467 77.9662L-4.49756 64.1856Z" fill="white"/>
</g>
<path d="M19.3462 77.9661V102.465L22.7037 100.523V76.0247L19.3462 77.9661Z" fill="#1E3565"/>
<path d="M-4.5 64.1858V88.6824L19.3452 102.465V77.9683L-4.5 64.1858ZM17.3883 99.0697L-2.54339 87.5526V67.5807L17.3883 79.0978V99.0697Z" fill="#1E3565"/>
<path opacity="0.3" d="M-4.5 64.1858V88.6824L19.3452 102.465V77.9683L-4.5 64.1858ZM17.3883 99.0697L-2.54339 87.5526V67.5807L17.3883 79.0978V99.0697Z" fill="black"/>
<path d="M0.816304 85.6096L-2.54492 87.5507V67.5819L0.811994 69.523L0.816304 85.6096Z" fill="#1E3565"/>
<path opacity="0.5" d="M0.816304 85.6096L-2.54492 87.5507V67.5819L0.811994 69.523L0.816304 85.6096Z" fill="black"/>
<path d="M33.4565 63.5952C32.4427 63.7104 31.4451 63.9112 30.438 64.0821C29.4113 64.2562 28.3682 64.3621 27.326 64.3141C27.2817 64.3119 27.2227 64.294 27.2267 64.2497C27.2285 64.2291 27.2451 64.2133 27.2608 64.1995C27.6457 63.8628 28.0931 63.5952 28.4304 63.2105C28.7676 62.8261 28.9805 62.2695 28.7799 61.7992C28.7651 61.765 28.7479 61.7308 28.7205 61.7058C28.6371 61.6304 28.5051 61.6701 28.4036 61.7191C28.0864 61.8725 27.8291 62.0869 27.4996 62.215C27.1685 62.3437 26.8325 62.4623 26.487 62.547C26.0657 62.6502 25.6307 62.7029 25.2221 62.8486C24.6577 63.0494 24.1744 63.4165 23.7316 63.8114C23.3122 64.1856 23.0165 64.4145 22.4614 64.5503C21.3842 64.814 20.5777 64.8288 18.2319 64.6449C14.7571 64.3726 12.4214 63.9152 12.4214 63.9152L12.6528 53.7164C12.6528 48.7257 11.4565 45.1571 10.0519 44.2836C9.59222 44.5202 8.41438 45.354 7.7913 46.2672C7.00207 47.4238 6.84023 49.436 6.30454 54.2671C5.92361 57.7042 5.77377 62.4136 5.72423 65.5267C5.66884 68.9918 7.075 69.9405 10.2002 70.1262C13.1535 70.3018 16.1651 70.1003 18.5971 69.8576C19.5974 69.7652 26.0307 69.6783 27.0848 69.4476C28.139 69.2169 28.9467 68.7177 29.4673 68.1134C29.6199 67.9366 29.759 67.749 29.9079 67.5691C30.0347 67.416 30.1227 67.2725 30.3042 67.1742C30.4356 67.1034 30.5774 67.0526 30.7061 66.9762C31.0307 66.7831 31.2036 66.4618 31.263 66.0993C31.3457 65.5932 31.8863 65.4349 32.2953 65.2741C33.1473 64.9393 34.27 64.5562 34.8664 64.2143C34.8873 64.2023 34.9063 64.1853 34.9159 64.1631C34.926 64.1397 34.9223 64.1129 34.9165 64.088C34.778 63.4772 33.9171 63.5428 33.4565 63.5952Z" fill="#CA8082"/>
<path d="M10.1302 44.1122C8.50001 45.0144 7.01016 45.8768 6.00955 47.5391C5.00863 49.2015 4.7277 52.2772 4.97478 58.56C5.18647 63.9391 5.3997 66.8291 5.48647 67.7245C5.57355 68.6196 6.35662 69.9905 8.57601 70.1763C10.7954 70.362 13.0228 70.1926 13.0228 70.1926C13.0228 70.1926 12.5963 66.3043 14.2378 64.1541L12.5443 63.8433L12.8815 52.6342C12.9437 51.1256 12.7289 46.0964 10.1302 44.1122Z" fill="#6585C7"/>
<path opacity="0.15" d="M10.1302 44.1122C8.50001 45.0144 7.01016 45.8768 6.00955 47.5391C5.00863 49.2015 4.7277 52.2772 4.97478 58.56C5.18647 63.9391 5.3997 66.8291 5.48647 67.7245C5.57355 68.6196 6.35662 69.9905 8.57601 70.1763C10.7954 70.362 13.0228 70.1926 13.0228 70.1926C13.0228 70.1926 12.5963 66.3043 14.2378 64.1541L12.5443 63.8433L12.8815 52.6342C12.9437 51.1256 12.7289 46.0964 10.1302 44.1122Z" fill="white"/>
<path opacity="0.15" d="M12.5445 63.8433C10.8679 63.7152 8.53064 64.002 7.56079 64.926C7.56079 64.926 8.16972 63.2824 12.5691 63.0234L12.5445 63.8433Z" fill="black"/>
</g>
<defs>
<clipPath id="clip0_65_1129">
<rect width="101" height="85" fill="white"/>
</clipPath>
</defs>
</svg>
